<svg xmlns="http://www.w3.org/2000/svg" width="40" height="96" viewBox="0 0 40 96">
    <g fill="none" fill-rule="evenodd">
        <g fill="#fabe41">
            <g>
                <path d="M83.797 243.771c-.13.064-.316.16-.558.264-.475.216-1.138.5-1.89.772-.379.135-.78.268-1.191.392-.205.061-.413.122-.62.177-.21.056-.42.104-.63.154-.84.19-1.663.316-2.39.332-.567.015-1.12.165-1.632.414-.52.244-.996.588-1.43.985-.86.808-1.525 1.857-1.863 2.964-.233.76-.592 1.35-.965 1.805.396-1.136.77-2.298 1.11-3.481.373-1.314.71-2.657.998-4.02.223-1.045.408-2.109.576-3.175.008-.006.011-.017.016-.024.105-.148.225-.29.35-.418.134-.13.271-.249.426-.342.31-.192.67-.297 1.084-.218 0 0 .215-.044.546-.131.327-.085.768-.216 1.227-.388.23-.087.46-.185.684-.288.224-.109.436-.224.628-.346.382-.25.683-.532.786-.828.107-.297.222-.55.341-.792.12-.246.244-.484.37-.74.13-.258.254-.543.384-.886.062-.174.13-.36.189-.566.062-.207.122-.43.181-.68.062-.247.151-.517.263-.796.112-.279.256-.566.407-.87.151-.3.32-.605.495-.913.174-.307.357-.612.538-.915.095-.148.183-.297.272-.445.091-.141.18-.283.265-.418.175-.277.345-.539.495-.759.302-.438.553-.778.693-.93 0 0-.23.22-.61.564-.188.172-.42.373-.677.59-.26.225-.555.472-.866.72-.622.49-1.344.994-2.068 1.425-.18.107-.36.214-.54.312-.184.096-.365.185-.545.273-.357.17-.705.318-1.036.427-.26.091-.505.207-.738.36-.236.141-.457.311-.665.5-.407.378-.773.84-1.07 1.339-.605 1-.985 2.164-1.087 3.28-.046.556-.181 1.053-.345 1.482-.08.196-.165.377-.254.545.002-.024.007-.048.01-.074.388-2.775.575-5.595.508-8.363-.006-.174-.01-.346-.013-.516-.007-.175-.018-.35-.021-.52l-.029-.514c-.009-.17-.02-.344-.033-.514l-.036-.512-.012-.16c.014-.043.024-.078.04-.12.123-.324.29-.66.53-.934.24-.27.55-.477.946-.534 0 0 .045-.026.128-.079.08-.043.2-.115.338-.207.28-.183.653-.438 1.031-.738.379-.301.761-.646 1.058-.994.286-.347.49-.698.525-1.003.067-.608.174-1.094.28-1.674.027-.146.052-.298.077-.46.021-.161.04-.331.057-.51.018-.18.028-.372.037-.586.01-.207.018-.434.01-.678-.006-.246.012-.514.049-.802.018-.144.04-.288.07-.442.024-.153.05-.308.081-.462.062-.312.137-.641.219-.966l.124-.486.13-.484c.089-.32.178-.63.268-.922.09-.294.173-.569.253-.81.162-.5.306-.883.4-1.066 0 0-.155.276-.418.71-.133.216-.295.473-.478.756-.187.277-.388.585-.62.903-.46.634-.99 1.305-1.546 1.916-.563.612-1.146 1.166-1.7 1.573-.218.164-.412.349-.586.554-.18.203-.336.427-.475.667-.276.477-.475 1.005-.62 1.56-.073.277-.128.558-.164.844-.046.281-.075.566-.085.852-.007.137-.01.281-.007.423.001.14.001.279.007.416.014.277.042.547.085.81.021.132.034.26.043.389.009.128.014.255.017.373 0 .246-.014.477-.039.701-.033.247-.083.476-.14.687-.014-.179-.034-.362-.052-.545-.145-1.345-.336-2.668-.572-3.958-.246-1.286-.535-2.54-.86-3.751-.086-.3-.17-.6-.253-.9-.09-.297-.183-.586-.272-.88-.084-.293-.189-.578-.28-.864l-.001-.002c.003-.083.005-.157.016-.244.039-.34.11-.7.265-1.022.15-.32.382-.606.729-.787 0 0 .146-.155.359-.408.213-.255.49-.608.764-1.002.272-.393.537-.828.724-1.24.183-.406.286-.785.247-1.073-.021-.141-.039-.285-.051-.418-.015-.135-.029-.27-.041-.406-.023-.268-.045-.536-.068-.83-.027-.288-.064-.595-.12-.942-.03-.172-.058-.355-.1-.547-.043-.191-.09-.394-.148-.61-.222-.87-.258-2.17-.23-3.372.013-.595.043-1.163.084-1.632.036-.467.084-.83.137-1.024 0 0-.085.285-.236.745-.151.451-.377 1.085-.658 1.78-.139.347-.292.707-.459 1.073-.167.364-.347.737-.531 1.094-.187.353-.384.702-.585 1.024-.203.327-.408.633-.617.9-.326.423-.543.91-.672 1.422-.068.255-.11.518-.137.784-.027.27-.029.536-.025.811.009.275.032.543.073.813.017.135.039.268.062.405.023.131.053.26.083.393.128.518.287 1.022.488 1.473.097.222.172.451.233.671.028.114.055.225.076.332.023.107.04.213.052.32.032.28.037.536.033.78-.016-.034-.028-.072-.042-.106-.05-.144-.1-.282-.153-.417-.046-.14-.094-.274-.151-.416l-.317-.809c-.103-.266-.215-.525-.32-.784-.057-.129-.108-.26-.169-.388-.051-.127-.112-.253-.165-.382l-.17-.374c-.026-.066-.054-.125-.083-.19-.028-.061-.058-.12-.085-.183l-.345-.726-.35-.71-.174-.35c-.06-.113-.118-.226-.176-.34-.593-1.141-1.282-2.148-1.935-3.09l-.027-.083c-.06-.207-.131-.492-.167-.817-.033-.32-.04-.667.034-1.005.077-.34.231-.66.514-.922 0 0 .1-.18.245-.47.144-.286.333-.683.509-1.112.357-.861.656-1.848.489-2.334-.336-.96-.463-1.855-1.087-3.28-.16-.356-.29-.807-.398-1.304-.105-.49-.188-1.026-.249-1.528-.12-1.015-.146-1.933-.076-2.286 0 0-.054.261-.155.69-.096.43-.244 1.02-.427 1.692-.37 1.334-.901 2.958-1.527 4.109-.247.455-.372.939-.405 1.427-.03.495.025.996.147 1.482.242.981.736 1.91 1.264 2.64.137.18.246.37.344.555.096.19.177.378.243.567.132.37.208.73.253 1.049.012.1.017.187.024.278-.22-.318-.432-.632-.629-.935-.215-.329-2.375-3.267-3.922-5.368-.267-.566-.477-1.257-.477-2.05 0-2.143-.73-4.85-2.773-5.415-2.59-.717-6.147-3.16-6.147-3.16.592.414 2.441 2.925 2.863 4.562.42 1.634.883 2.437 1.21 3.474.326 1.037 3.555 2.177 3.555 2.177.526-.017.994.242 1.39.604.562 1.02 2.24 4.039 2.697 4.71.267.397.548.817.834 1.26.25.388.509.8.774 1.223-.091-.04-.187-.088-.288-.142-.114-.066-.232-.142-.352-.229-.123-.083-.25-.183-.37-.292-.125-.111-.244-.238-.363-.377-.12-.14-.231-.294-.341-.467-.052-.085-.109-.174-.17-.261-.058-.085-.122-.168-.184-.253-.134-.166-.272-.322-.422-.475-.147-.153-.309-.294-.473-.423-.163-.128-.337-.246-.515-.34-.711-.388-1.508-.492-2.278-.065-.981.54-2.284.967-3.348 1.277-.53.153-1.002.272-1.34.355-.336.083-.54.127-.54.127.273-.06.972.01 1.713.185.372.087.75.198 1.103.338.348.135.66.296.89.481.464.362.85.598 1.193.8.349.2.65.362.955.582.157.114.427.129.754.09.327-.035.704-.127 1.067-.225.722-.203 1.374-.447 1.374-.447.267-.226.551-.307.825-.307.274 0 .534.096.761.218.231.122.425.272.56.399.135.122.214.209.214.209s.014-.015.017-.024c.5.835 1.003 1.724 1.5 2.683l.172.33c.06.108.112.224.169.337.112.222.224.451.341.682.108.233.217.469.33.709.03.058.058.117.084.176.029.061.057.122.08.183l.164.364.163.368c.056.127.107.253.157.378.107.252.213.505.316.76.102.26.203.517.304.78.054.133.1.264.15.397.048.135.094.268.146.406.046.133.1.268.145.405.045.135.09.275.137.41 0 .004 0 .008.004.008-.038-.03-.068-.056-.105-.091-.103-.098-.205-.21-.313-.331-.11-.12-.219-.26-.32-.41-.107-.146-.201-.31-.295-.486-.096-.175-.183-.366-.258-.571-.037-.105-.077-.21-.121-.312-.044-.105-.096-.207-.146-.31-.103-.204-.217-.405-.338-.601-.13-.192-.27-.373-.416-.547-.074-.085-.15-.168-.227-.242-.08-.083-.164-.153-.247-.222-.34-.275-.704-.482-1.106-.573-.399-.094-.818-.083-1.254.07-.558.198-1.191.352-1.826.487-.633.133-1.278.251-1.844.345-.282.046-.547.09-.787.133l-.631.1c-.354.055-.57.083-.57.083.287-.035.977.072 1.697.318.09.03.183.065.272.098.09.035.18.074.268.11.178.08.352.163.516.252.329.18.612.386.818.6.199.21.384.398.562.56.087.074.169.154.25.226.082.072.16.14.24.203.315.261.585.488.854.771.135.142.409.218.754.258.343.037.755.039 1.152.024.791-.024 1.518-.099 1.518-.099.333-.159.644-.17.928-.087.072.02.14.046.21.077.066.03.128.063.19.1.125.08.237.17.342.268.204.187.371.399.482.562.009.024.016.042.02.063.088.282.173.567.262.853.079.287.162.573.242.867.315 1.17.596 2.38.83 3.623.228 1.246.415 2.523.555 3.827l.096.983c.006.07.01.135.014.2-.152-.261-.31-.564-.437-.917-.034-.1-.066-.194-.096-.297-.028-.1-.06-.205-.085-.311-.054-.212-.096-.436-.121-.68-.02-.238-.064-.482-.121-.726-.055-.249-.121-.493-.201-.733-.084-.241-.181-.479-.293-.7-.109-.224-.228-.437-.37-.633-.142-.197-.299-.38-.46-.539-.084-.078-.168-.15-.26-.218-.09-.07-.183-.13-.28-.185-.39-.222-.824-.336-1.312-.314-.154.007-.312.009-.474.009-.164 0-.33-.002-.498-.009-.336-.01-.683-.033-1.024-.056-.343-.024-.685-.053-1.015-.083l-.96-.085c-1.192-.105-2.11-.19-2.11-.19.15.018.397.09.689.214.288.124.626.3.97.516.168.11.337.227.497.355.163.125.327.255.469.39.146.14.28.28.395.42.062.069.115.139.165.21.025.035.05.07.073.105.018.033.04.07.057.103.151.276.295.516.44.734.138.218.268.412.394.595.261.364.482.689.686 1.064.052.098.144.185.265.268.123.085.276.168.446.246.343.153.77.294 1.18.419.412.122.81.224 1.103.3.294.072.484.116.484.116.382-.055.704.04.976.22.27.18.492.44.656.713.092.15.165.303.231.449l.002.021c.01.166.02.33.032.497.007.168.014.334.025.495.005.168.016.334.021.501.006.166.007.33.013.497.067 2.668-.116 5.395-.491 8.09-.027.197-.062.391-.09.585-.02-.079-.043-.15-.06-.231-.044-.196-.078-.403-.104-.623-.011-.107-.02-.22-.027-.334-.007-.115-.012-.229-.012-.349 0-.12.001-.237.01-.364.007-.122.02-.246.03-.37.032-.26.05-.528.057-.798.002-.268-.007-.55-.03-.824-.028-.274-.071-.547-.128-.815-.057-.268-.14-.527-.233-.776-.09-.246-.206-.481-.34-.702-.135-.215-.282-.416-.456-.592-.345-.354-.765-.609-1.273-.746-.642-.172-1.346-.427-2.038-.693-.343-.133-.693-.266-1.028-.403-.336-.13-.656-.26-.962-.382-.304-.115-.59-.228-.846-.329-.128-.048-.25-.093-.36-.137-.113-.044-.22-.09-.316-.129l-.61-.252c.077.034.175.089.287.165.057.04.115.083.178.129.06.048.126.098.197.152.135.103.277.225.427.36.073.065.15.135.224.211.073.072.15.149.222.231l.22.247c.073.085.146.172.212.257.139.176.269.36.388.545.119.185.22.368.305.551.043.092.088.181.12.266.032.09.058.177.08.257.044.166.092.32.137.471.046.15.09.288.135.423.044.133.092.262.135.384.042.122.087.244.13.355.042.118.085.229.126.338.044.109.078.22.117.329.073.216.144.43.201.658.053.231.288.493.606.767.315.273.715.558 1.106.822.395.26.777.497 1.06.669.284.172.473.279.473.279.402.074.711.272.95.551.232.273.387.613.499.948.027.092.043.177.066.269-.146.884-.304 1.772-.49 2.643-.282 1.328-.609 2.629-.975 3.913-.365 1.29-.774 2.552-1.213 3.779-.002-.02-.003-.037-.003-.057-.008-.215.001-.436.02-.675.017-.231.047-.476.095-.72.05-.248.109-.505.194-.76.338-1.031.505-2.298.32-3.442-.046-.287-.107-.562-.201-.83-.09-.264-.204-.519-.341-.752-.278-.47-.66-.865-1.15-1.157-.621-.364-1.29-.848-1.942-1.343-.653-.493-1.298-1.003-1.867-1.458l-1.98-1.583c.141.116.346.35.57.674.112.161.231.34.35.538.118.196.237.41.354.63.116.223.224.454.325.691.1.236.194.475.272.71.08.234.143.467.192.687.048.22.079.43.088.62.012.195.023.374.037.546.014.172.03.336.05.497.03.314.069.595.112.863.073.536.154 1.012.176 1.526.012.26.197.6.467.97.137.19.292.386.46.577.168.199.344.393.52.585.35.377.702.725.962.985.131.128.238.23.313.305.076.074.119.111.119.111.404.18.68.477.871.824.093.172.164.36.219.551.05.19.085.38.107.571.003.024.003.05.005.077-.354.946-.72 1.872-1.11 2.763-.997 2.293-2.112 4.412-3.29 6.301-.045.072-.09.135-.134.205.034-.163.07-.327.117-.495.068-.235.148-.475.25-.717.099-.235.21-.48.351-.719.559-.965.976-2.22 1.007-3.448.014-.612-.063-1.214-.264-1.774-.197-.554-.517-1.057-.972-1.487-.286-.265-.581-.566-.875-.884-.293-.316-.592-.654-.882-.99-.291-.34-.576-.682-.859-1.018-.279-.333-.545-.662-.798-.97l-1.75-2.146c.063.078.132.19.214.333.076.144.162.316.247.512.087.194.178.414.263.65.086.233.17.484.247.74.08.26.146.528.21.794.06.27.11.538.148.798.02.133.035.26.05.388.01.124.016.246.02.364.008.24.004.464-.02.658-.029.198-.047.384-.064.564-.016.181-.032.345-.043.508-.013.166-.02.323-.025.471-.005.153-.012.294-.016.436-.005.137-.007.277-.01.41-.01.135-.017.263-.018.394-.008.131-.015.262-.025.39-.013.127-.029.255-.047.388-.017.129.006.292.06.482.05.185.136.394.24.621.102.227.227.469.358.713.137.246.278.492.42.732.288.486.576.94.79 1.275.214.338.358.554.358.554.377.3.603.682.724 1.09.112.379.123.769.098 1.142-.99 1.493-2.016 2.829-3.051 3.969-1.154 1.266-2.306 2.286-3.401 3.075.053-.08.108-.161.161-.244.276-.392.607-.767 1.012-1.123.41-.346.797-.804 1.126-1.312.323-.514.59-1.083.744-1.691.04-.153.073-.303.098-.456.027-.15.045-.305.057-.462.01-.154.018-.307.013-.46-.007-.156-.02-.313-.04-.468-.04-.307-.115-.61-.225-.907-.11-.303-.258-.597-.445-.878-.236-.362-.471-.75-.704-1.155-.24-.406-.473-.833-.706-1.256-.23-.418-.458-.839-.68-1.257-.22-.406-.435-.805-.635-1.18l-.564-1.041-.448-.822c-.253-.458-.404-.737-.404-.737.098.186.217.521.331.946.057.207.112.44.162.696.012.063.026.126.037.19.009.062.023.126.034.193.021.127.039.262.059.395.039.274.064.542.081.817.02.275.025.543.022.796-.006.263-.025.5-.057.73-.01.11-.032.224-.052.322-.023.098-.05.192-.078.277-.028.087-.052.174-.076.255-.029.08-.054.164-.077.24-.048.157-.085.311-.124.453-.077.283-.137.556-.196.804-.027.127-.055.249-.084.369-.026.117-.055.233-.085.348l-.044.168-.022.09-.026.08c-.034.111-.071.216-.114.33-.02.054-.03.121-.034.2-.007.076-.007.161 0 .26.014.191.048.424.098.681.096.506.247 1.105.395 1.694.15.59.298 1.15.403 1.565.114.416.183.689.183.689.269.47.37.937.354 1.384-.003.11-.014.226-.03.33-.018.108-.04.212-.07.317-.026.102-.06.203-.095.3-.008.014-.015.027-.02.042-.418.266-.829.506-1.218.7-.133.067-.267.13-.393.192-.13.056-.258.113-.38.163-.125.059-.247.098-.367.146-.119.044-.236.092-.352.126-.914.306-1.648.417-2.146.46-.062.01-.119.013-.174.018-.028 0-.053.002-.08.004-.027.005-.052 0-.075.005l-.24.008c-.126.002-1.86-.168-1.86-.168s-3.239-.196-4.06-.667c-.438-.25-.966-.222-1.309.175-.302.344-.076.978.101 1.961.386 2.101 1.81 3.307 1.592 5.12 0 0 1.095-2.012.275-3.692 0 0 .125-1.778 2.966-1.428 0 0 .398.03.866.061-.631.91-1.229 2.731.432 5.809 2.366 4.383 2.235 6.473 2.2 6.787.06-.473.703-5.728-.762-7.524-1.925-2.365-1.136-4.012-.197-4.989.02 0 .032 0 .052-.006h.081c.032-.005.06-.005.093-.007.062-.006.128-.01.199-.02.558-.045 1.383-.174 2.395-.51.126-.039.252-.091.386-.143.135-.048.268-.092.403-.155.137-.057.276-.122.42-.183.14-.066.283-.137.428-.21.443-.22.907-.492 1.377-.793.31.033.633.098.937.231.371.179.721.471.965.955 0 0 .196.183.509.447.312.263.753.608 1.244.924.244.157.5.305.76.438.259.13.522.244.77.325.5.161.97.207 1.288.048.162-.074.313-.14.457-.19.142-.052.276-.096.41-.133.266-.072.527-.126.797-.196.14-.041.283-.083.436-.13.075-.025.155-.06.235-.09.082-.029.163-.066.25-.103.17-.078.354-.174.557-.29.2-.115.409-.259.644-.427.236-.163.505-.31.816-.44.313-.129.649-.246 1.013-.347.363-.104.74-.2 1.13-.285.394-.085.787-.161 1.173-.233 1.557-.281 3.015-.48 3.465-.504l-.247-.015c-.162-.009-.391-.033-.68-.057-.286-.032-.627-.074-1.004-.122-.377-.052-.798-.122-1.237-.207-.872-.168-1.837-.4-2.747-.712-.921-.299-1.79-.676-2.493-1.082-.564-.324-1.177-.523-1.8-.616-.314-.053-.63-.077-.945-.079-.155 0-.313.005-.472.013-.156.009-.313.024-.467.044-.077.013-.153.024-.228.035-.078.01-.156.026-.233.043-.153.024-.302.064-.45.098-.145.044-.296.088-.439.138-.145.043-.286.1-.423.161-.14.055-.274.118-.407.185-.135.068-.261.144-.388.216-.252.153-.489.331-.713.521-.11.096-.224.19-.336.268-.115.079-.227.153-.341.216-.228.133-.457.227-.68.305-.054.02-.108.037-.163.054-.044.011-.09.024-.138.035 1.155-.834 2.357-1.902 3.548-3.214 1.122-1.236 2.225-2.684 3.283-4.29.128-.056.26-.113.398-.148.183-.05.373-.08.562-.083.384-.006.782.11 1.148.43 0 0 .059.021.16.054l.427.142c.356.106.845.24 1.367.34.523.1 1.07.161 1.554.141.123-.006.24-.015.349-.032.112-.016.215-.037.31-.066.191-.059.353-.144.47-.257.118-.111.23-.216.338-.3.109-.092.219-.173.324-.25.11-.073.217-.14.323-.215l.331-.214c.45-.309.958-.695 1.61-1.519.33-.412.831-.802 1.418-1.172.293-.188.606-.366.932-.54.321-.173.65-.343.978-.5.328-.161.647-.316.956-.455.31-.138.603-.262.864-.382.523-.222.94-.386 1.145-.444l-.23.04c-.149.027-.36.07-.629.11-.263.041-.58.091-.935.135-.355.05-.75.09-1.164.118-.418.037-.85.06-1.3.074-.446.009-.903.009-1.351-.009-.224-.006-.448-.022-.665-.037-.22-.02-.438-.035-.651-.07-.423-.048-.827-.117-1.197-.202-.291-.072-.585-.105-.88-.112-.298-.006-.594.02-.885.072-.583.103-1.16.301-1.69.578-1.066.562-1.984 1.41-2.558 2.437-.147.261-.304.492-.467.7-.168.204-.342.385-.514.544-.095.09-.19.153-.285.225 1.215-1.949 2.356-4.124 3.382-6.471.44-1.016.855-2.07 1.25-3.141.263-.216.56-.42.896-.519.18-.054.366-.083.558-.072.194.011.393.061.594.162 0 0 .909.063 1.915-.022.503-.044 1.024-.127 1.467-.268.444-.138.8-.34.972-.604.086-.129.175-.253.258-.364.084-.113.167-.216.255-.316.168-.198.344-.381.524-.59.185-.21.372-.439.576-.729.201-.298.413-.654.64-1.111.114-.227.269-.462.448-.704.187-.238.393-.484.626-.726.114-.122.237-.244.36-.368.122-.122.246-.242.378-.362.256-.242.528-.48.788-.713.263-.229.524-.453.778-.66.247-.207.486-.403.704-.571.217-.175.413-.32.575-.443.162-.122.291-.209.382-.266l-.203.098" transform="translate(-272 -1112) translate(228 922) matrix(-1 0 0 1 128 0)"/>
            </g>
        </g>
    </g>
</svg>
