<svg width="32" height="32" viewBox="0 0 32 32" fill="none" xmlns="http://www.w3.org/2000/svg">
<path fill-rule="evenodd" clip-rule="evenodd" d="M12 5C12 3.34315 13.3431 2 15 2H17C18.6569 2 20 3.34315 20 5V27C20 28.6569 18.6569 30 17 30H15C13.3431 30 12 28.6569 12 27V5ZM15 4C14.4477 4 14 4.44772 14 5V27C14 27.5523 14.4477 28 15 28H17C17.5523 28 18 27.5523 18 27V5C18 4.44772 17.5523 4 17 4H15Z" fill="#FF8747"/>
<path fill-rule="evenodd" clip-rule="evenodd" d="M2 17C2 15.3431 3.34315 14 5 14H7C8.65685 14 10 15.3431 10 17V27C10 28.6569 8.65685 30 7 30H5C3.34315 30 2 28.6569 2 27V17ZM5 16C4.44772 16 4 16.4477 4 17V27C4 27.5523 4.44772 28 5 28H7C7.55228 28 8 27.5523 8 27V17C8 16.4477 7.55228 16 7 16H5Z" fill="#FF8747"/>
<path fill-rule="evenodd" clip-rule="evenodd" d="M25 6C23.3431 6 22 7.34314 22 9V27C22 28.6569 23.3431 30 25 30H27C28.6569 30 30 28.6569 30 27V9C30 7.34315 28.6569 6 27 6H25ZM24 9C24 8.44771 24.4477 8 25 8H27C27.5523 8 28 8.44771 28 9V27C28 27.5523 27.5523 28 27 28H25C24.4477 28 24 27.5523 24 27V9Z" fill="#FF8747"/>
</svg>
